<svg width="120" height="28" viewBox="0 0 120 28" fill="none" xmlns="http://www.w3.org/2000/svg">
<rect width="120" height="28" fill="#131417"/>
<path d="M14.5864 8.66729C15.7624 8.66729 16.8409 9.09429 17.6776 9.80129L18.8168 8.43629C17.6332 7.4333 16.1345 6.88384 14.5864 6.88529C10.9549 6.88529 8 9.85529 8 13.5053C8 17.1543 10.9549 20.1233 14.5864 20.1233C16.1345 20.1247 17.6332 19.5752 18.8168 18.5723L17.6776 17.2073C16.8127 17.9402 15.7177 18.3419 14.5864 18.3413C13.3104 18.34 12.087 17.83 11.1846 16.9232C10.2822 16.0164 9.77453 14.7868 9.77295 13.5043C9.77453 12.2218 10.2822 10.9922 11.1846 10.0854C12.087 9.17862 13.3104 8.66861 14.5864 8.66729ZM51.0424 17.9593H48.383V9.04929H51.0424C52.2177 9.05035 53.3446 9.52002 54.1758 10.3552C55.0069 11.1905 55.4745 12.323 55.4758 13.5043C55.4745 14.6856 55.0069 15.8181 54.1758 16.6533C53.3446 17.4886 52.2177 17.9582 51.0424 17.9593ZM51.0424 7.26729H47.4965C47.2616 7.26729 47.0364 7.36106 46.8704 7.52797C46.7043 7.69487 46.611 7.92125 46.611 8.15729V18.8503C46.611 19.3423 47.007 19.7423 47.4965 19.7423H51.0424C52.6879 19.7407 54.2656 19.083 55.4292 17.9135C56.5928 16.744 57.2471 15.1582 57.2487 13.5043C57.2469 11.8505 56.5924 10.265 55.4288 9.09576C54.2653 7.92646 52.6878 7.26888 51.0424 7.26729ZM62.0482 8.15829V18.8513C62.0482 19.3433 62.4462 19.7413 62.9357 19.7413H70.323V17.9603H63.8222V14.3953H67.9591V12.6133H63.8222V9.04929H70.323V7.26729H62.9357C62.7008 7.26729 62.4754 7.36103 62.3092 7.5279C62.143 7.69478 62.0495 7.92116 62.0492 8.15729L62.0482 8.15829ZM88.8853 8.15829V18.8513C88.8853 19.3433 89.2823 19.7413 89.7708 19.7413H97.1591V17.9603H90.6583V14.3953H94.7952V12.6133H90.6583V9.04929H97.1591V7.26729H89.7718C89.5369 7.26729 89.3115 7.36103 89.1453 7.5279C88.9791 7.69478 88.8856 7.92216 88.8853 8.15829ZM80.4474 12.6133H77.4924V9.04929H80.4474C81.4254 9.04929 82.2203 9.84929 82.2203 10.8313C82.2203 11.8143 81.4254 12.6133 80.4474 12.6133ZM80.4474 7.26729H76.606C76.3711 7.26729 76.1459 7.36106 75.9798 7.52797C75.8138 7.69487 75.7205 7.92125 75.7205 8.15729V19.7423H77.4924V14.3953H80.4474C81.3876 14.3945 82.2892 14.0188 82.9542 13.3506C83.6192 12.6824 83.9932 11.7764 83.9943 10.8313C83.9932 9.88621 83.6192 8.98016 82.9542 8.31198C82.2892 7.6438 81.3876 7.26808 80.4474 7.26729ZM111.02 7.26729V16.3893L103.723 7.58729C103.606 7.44588 103.449 7.34404 103.273 7.29572C103.097 7.2474 102.911 7.25496 102.739 7.31736C102.567 7.37975 102.419 7.49395 102.314 7.6443C102.21 7.79466 102.154 7.97383 102.155 8.15729V19.7423H103.928V10.6193L111.225 19.4213C111.342 19.561 111.499 19.6613 111.675 19.7086C111.85 19.7559 112.036 19.7479 112.207 19.6858C112.378 19.6237 112.526 19.5103 112.631 19.3611C112.735 19.2119 112.792 19.034 112.793 18.8513V7.26729H111.02ZM36.4668 12.5213L32.9437 10.1533V6.34329L39.3112 10.6093L36.4668 12.5213ZM37.9293 13.5043L39.9619 12.1373V14.8713L37.9293 13.5043ZM32.9437 16.8553L36.4668 14.4873L39.3112 16.3993L32.9437 20.6663V16.8553ZM27.795 14.4873L31.318 16.8553V20.6653L24.9505 16.3993L27.795 14.4873ZM26.3325 13.5043L24.2998 14.8713V12.1373L26.3325 13.5043ZM31.318 10.1533L27.794 12.5213L24.9505 10.6093L31.318 6.34229V10.1533ZM32.1309 15.4363L29.2556 13.5053L32.1309 11.5733L35.0062 13.5053L32.1309 15.4363ZM41.5727 10.4663C41.5687 10.4433 41.5657 10.4203 41.5588 10.3973L41.5468 10.3573C41.5399 10.3373 41.5339 10.3173 41.5259 10.2983L41.507 10.2583C41.4988 10.2399 41.4899 10.2219 41.4802 10.2043L41.4563 10.1663C41.4076 10.0898 41.3464 10.0222 41.2752 9.96629L41.2384 9.93929L41.2255 9.92929L32.5816 4.13729C32.4481 4.04777 32.2913 4 32.1309 4C31.9705 4 31.8136 4.04777 31.6802 4.13729L23.0363 9.92929L23.0224 9.93929L22.9855 9.96729C22.9423 10.0019 22.9024 10.0404 22.8662 10.0823C22.8441 10.1092 22.8236 10.1372 22.8045 10.1663L22.7816 10.2043C22.7713 10.2221 22.762 10.2405 22.7537 10.2593C22.7478 10.2723 22.7408 10.2853 22.7358 10.2993C22.7282 10.3187 22.7212 10.3384 22.7149 10.3583C22.7099 10.3713 22.705 10.3843 22.702 10.3983C22.6965 10.4208 22.6918 10.4435 22.6881 10.4663L22.6811 10.5013C22.6764 10.5368 22.6741 10.5725 22.6741 10.6083V16.4003C22.6741 16.4363 22.6771 16.4713 22.6811 16.5073L22.6881 16.5423C22.6919 16.5651 22.6965 16.5878 22.702 16.6103L22.7149 16.6503L22.7358 16.7103C22.7408 16.7243 22.7478 16.7363 22.7537 16.7503C22.768 16.782 22.785 16.8125 22.8045 16.8413C22.8527 16.9181 22.914 16.9858 22.9855 17.0413C22.9975 17.0513 23.0094 17.0613 23.0224 17.0693L23.0363 17.0793L31.6802 22.8713C31.8135 22.9611 31.9704 23.009 32.1309 23.009C32.2914 23.009 32.4482 22.9611 32.5816 22.8713L41.2255 17.0793L41.2384 17.0693L41.2752 17.0413C41.2913 17.0289 41.3069 17.0159 41.322 17.0023L41.3538 16.9713C41.4181 16.9075 41.4701 16.8322 41.507 16.7493L41.5259 16.7103C41.5334 16.6906 41.5401 16.6706 41.5458 16.6503L41.5598 16.6103C41.5655 16.5879 41.5701 16.5652 41.5737 16.5423C41.5757 16.5303 41.5787 16.5193 41.5797 16.5073C41.5846 16.4718 41.5873 16.4361 41.5876 16.4003V10.6083C41.5873 10.5725 41.5846 10.5367 41.5797 10.5013L41.5727 10.4663Z" fill="white"/>
</svg>
